<svg xmlns="http://www.w3.org/2000/svg" viewBox="0 0 1249.15 525.01"><g id="Ebene_2" data-name="Ebene 2"><g id="Ebene_1-2" data-name="Ebene 1"><path d="M98.5,235.68c14.13,0,25.91,3.59,35.19,10.78,9.43,7.06,15.25,17,17.73,29.62h44.11q-6.32-35.32-31.72-55.89T99.5,199.62C80,199.62,63,203.71,47.94,212S21.3,232.21,12.76,247.7,0,281.4,0,302.34s4.21,39.41,12.63,55.15c8.55,15.48,20.2,27.38,35.19,35.68s32.09,12.4,51.55,12.4c25.9,0,47.46-6.95,64.44-20.83s27.63-32.58,31.72-56.13H151.42c-2.48,12.63-8.44,22.55-17.73,29.86s-21.06,10.91-35.19,10.91c-16,0-29.36-5.7-40-17.1s-16-28.13-16-49.94,5.33-38.41,16-49.69S82.52,235.68,98.5,235.68Z"/><path d="M685.11,212c-15.62-8.3-33.09-12.39-52.42-12.39s-36.8,4.09-52.29,12.39A91.74,91.74,0,0,0,544,247.7c-8.91,15.61-13.26,33.7-13.26,54.64s4.47,39.16,13.26,54.77,20.95,27.63,36.44,35.94,32.83,12.39,52.29,12.39,36.92-4.09,52.42-12.39a90.25,90.25,0,0,0,36.42-35.69c8.81-15.49,13.14-33.83,13.14-55q-.18-31.41-13.14-54.64A90.18,90.18,0,0,0,685.11,212Zm-1.37,127.51c-5.45,9.91-12.64,17.35-21.68,22.17a63.08,63.08,0,0,1-59,0c-9-4.82-16.23-12.26-21.68-22.17s-8.18-22.31-8.18-37.18c0-14.62,2.72-26.88,8.18-36.93S594,247.82,603.07,243a63.24,63.24,0,0,1,59,0c8.91,4.84,16.23,12.28,21.68,22.43s8.18,22.43,8.18,36.93Q691.92,324.46,683.74,339.52Z"/><path d="M1040.23,126.39c-5-4.58-11.4-6.94-19.46-6.94s-14.48,2.36-19.32,6.94-7.31,10.41-7.31,17.47,2.47,12.77,7.31,17.1,11.27,6.57,19.32,6.57,14.5-2.24,19.46-6.57,7.44-10,7.44-17.1A22.75,22.75,0,0,0,1040.23,126.39Z"/><rect x="999.96" y="202.22" width="41.51" height="200.74"/><path d="M879.15,198.38a90.8,90.8,0,0,0-14.59,1.16C839,95,765,0,679.28,0,609,0,630.33,61.34,530.08,132.09c-11.9,8.4-23.42,15.77-34.44,22.5V133.32H454.13v45.94c-25.66,15.48-46.51,30.07-60.22,51.41A85.14,85.14,0,0,0,370.61,212c-15-8.29-32.09-12.38-51.54-12.38s-36.56,4.09-51.55,12.38a88.91,88.91,0,0,0-35.19,35.69c-8.56,15.5-12.77,33.71-12.77,54.65,0,21.19,4.21,39.4,12.77,55s20.2,27.51,35.19,35.69,32.09,12.39,51.55,12.39,36.55-4.09,51.54-12.39a87.76,87.76,0,0,0,18.74-13.9C421.92,465.43,510.57,525,624.88,525,767.14,525,873.69,409.4,874.07,276a305.67,305.67,0,0,0-3-42.18c12.31,1.4,22.28,6.11,30,14.3C910.37,258,915,272,915,290V402.84h41.63V285.61q0-42-21.19-64.68C921.27,205.82,902.44,198.38,879.15,198.38ZM278.42,247.69c10.9-9.9,24.54-15,40.77-15s29.86,5,40.77,15c9,8.18,14.62,19.59,16.85,34.21H261.58C263.8,267.28,269.37,255.87,278.42,247.69Zm96,85.26c-2.85,9.78-7.44,17.72-13.88,23.67-10.66,9.91-25.78,15-41.51,15s-30.85-5-41.51-15-16.36-25.28-17.1-45.86H375.93a218.38,218.38,0,0,0,1.8,22.19ZM793.9,441.87c-44.49,45.59-104.59,70.75-169,70.75-66.66,0-127.26-21.56-170.75-60.59a197.4,197.4,0,0,1-55.47-83.54,99.72,99.72,0,0,0,7.14-11.13A97.05,97.05,0,0,0,415.09,333H390.16a205.75,205.75,0,0,1-2-22.19h30.11c.25-2.84.25-5.57.25-8.42,0-20.82-4.21-39.15-12.77-54.65q-1.85-3.33-3.89-6.46C413.17,221.5,431,207.9,454.13,193.6V402.82h41.51V169c13.11-7.86,27.12-16.62,41.64-26.86,48.81-34.45,70.25-67.15,85.87-90.95,17.34-26.76,25.28-38.91,56.13-38.91,33,0,66.3,15.87,96.28,46,35.82,35.9,63.4,89,76.92,144.2a76.42,76.42,0,0,0-44.21,36.46v-36.3H766.64V402.84h41.63V295.78c0-20.45,5-35.94,15-46.6q13.51-14.34,35.27-15.71a292.22,292.22,0,0,1,3.14,42.36A237.61,237.61,0,0,1,793.9,441.87Z"/><path d="M1175.67,285.5c-32.59-9.3-50.56-14.88-50.56-31.61,0-16.1,19-24.66,35.56-24.66,21.69,0,43.13,10.16,43.13,31.48h40.52c0-35.69-32.34-62.46-82.15-62.7-39.78,0-78.81,19.7-78.81,56.25s29.86,44.48,73.6,57.74c34.82,10.54,52.41,14.13,52.41,35.2,0,18.09-23.67,24.53-45.35,24.53-21.07,0-47.08-11.77-48.08-34.07h-42.5c0,42,42,67.16,91.7,67.16,41,0,84-18.71,84-56.13C1249.15,308.42,1218.3,297.64,1175.67,285.5Z"/></g></g></svg>