<?xml version="1.0" encoding="UTF-8" standalone="no"?>
<!-- Created with Inkscape (http://www.inkscape.org/) -->

<svg
   version="1.1"
   id="svg2"
   width="169.33333"
   height="201.33333"
   viewBox="0 0 169.33333 201.33333"
   xmlns="http://www.w3.org/2000/svg"
   xmlns:svg="http://www.w3.org/2000/svg">
  <defs
     id="defs6" />
  <g
     id="g8"
     transform="matrix(1.3333333,0,0,-1.3333333,0,201.33333)">
    <g
       id="g10">
      <path
         d="m 117.477,12.895 -5.075,14.207 -5.09,-14.207 z M 125.602,1.523 H 121.5 l -2.84,8.067 h -12.515 l -2.836,-8.067 h -3.907 l 10.532,28.942 h 5.132 L 125.602,1.523"
         style="fill:#62b92c;fill-opacity:1;fill-rule:evenodd;stroke:none"
         id="path12" />
      <g
         id="g14"
         transform="translate(0,151)">
        <path
           d="m 117.477,-138.105 -5.075,14.207 -5.09,-14.207 z"
           style="fill:none;stroke:#62b92c;stroke-width:0.6233;stroke-linecap:butt;stroke-linejoin:miter;stroke-miterlimit:3.86369;stroke-dasharray:none;stroke-opacity:1"
           id="path16" />
      </g>
      <g
         id="g18"
         transform="translate(0,151)">
        <path
           d="M 125.602,-149.477 H 121.5 l -2.84,8.067 h -12.515 l -2.836,-8.067 h -3.907 l 10.532,28.942 h 5.132 z"
           style="fill:none;stroke:#62b92c;stroke-width:0.6233;stroke-linecap:butt;stroke-linejoin:miter;stroke-miterlimit:3.86369;stroke-dasharray:none;stroke-opacity:1"
           id="path20" />
      </g>
      <path
         d="m 0.039,96.293 c 0,30.16 24.449,54.613 54.613,54.613 30.16,0 54.614,-24.453 54.614,-54.613 0,-30.164 -24.454,-54.613 -54.614,-54.613 -30.164,0 -54.613,24.449 -54.613,54.613"
         style="fill:#ffffff;fill-opacity:1;fill-rule:nonzero;stroke:none"
         id="path22" />
      <path
         d="m 1.176,96.301 c 0,29.535 23.941,53.476 53.476,53.476 29.532,0 53.473,-23.941 53.473,-53.476 0,-29.531 -23.941,-53.473 -53.473,-53.473 -29.535,0 -53.476,23.942 -53.476,53.473"
         style="fill:#fafdf6;fill-opacity:1;fill-rule:nonzero;stroke:none"
         id="path24" />
      <path
         d="m 2.316,96.312 c 0,28.903 23.43,52.333 52.336,52.333 28.903,0 52.332,-23.43 52.332,-52.333 0,-28.906 -23.429,-52.335 -52.332,-52.335 -28.906,0 -52.336,23.429 -52.336,52.335"
         style="fill:#f5fbee;fill-opacity:1;fill-rule:nonzero;stroke:none"
         id="path26" />
      <path
         d="m 3.457,96.32 c 0,28.274 22.922,51.196 51.195,51.196 28.274,0 51.192,-22.922 51.192,-51.196 0,-28.273 -22.918,-51.191 -51.192,-51.191 -28.273,0 -51.195,22.918 -51.195,51.191"
         style="fill:#eff8e5;fill-opacity:1;fill-rule:nonzero;stroke:none"
         id="path28" />
      <path
         d="m 4.598,96.332 c 0,27.645 22.41,50.051 50.054,50.051 27.645,0 50.051,-22.406 50.051,-50.051 0,-27.644 -22.406,-50.055 -50.051,-50.055 -27.644,0 -50.054,22.411 -50.054,50.055"
         style="fill:#eaf6dc;fill-opacity:1;fill-rule:nonzero;stroke:none"
         id="path30" />
      <path
         d="m 5.738,96.34 c 0,27.015 21.899,48.914 48.914,48.914 27.012,0 48.914,-21.899 48.914,-48.914 0,-27.016 -21.902,-48.914 -48.914,-48.914 -27.015,0 -48.914,21.898 -48.914,48.914"
         style="fill:#e5f3d4;fill-opacity:1;fill-rule:nonzero;stroke:none"
         id="path32" />
      <path
         d="m 6.879,96.348 c 0,26.386 21.387,47.773 47.773,47.773 26.383,0 47.774,-21.387 47.774,-47.773 0,-26.383 -21.391,-47.774 -47.774,-47.774 -26.386,0 -47.773,21.391 -47.773,47.774"
         style="fill:#e0f1cc;fill-opacity:1;fill-rule:nonzero;stroke:none"
         id="path34" />
      <path
         d="m 8.016,96.359 c 0,25.754 20.879,46.633 46.636,46.633 25.754,0 46.633,-20.879 46.633,-46.633 0,-25.757 -20.879,-46.632 -46.633,-46.632 -25.757,0 -46.636,20.875 -46.636,46.632"
         style="fill:#daeec4;fill-opacity:1;fill-rule:nonzero;stroke:none"
         id="path36" />
      <path
         d="m 9.156,96.367 c 0,25.125 20.371,45.496 45.496,45.496 25.125,0 45.493,-20.371 45.493,-45.496 0,-25.125 -20.368,-45.492 -45.493,-45.492 -25.125,0 -45.496,20.367 -45.496,45.492"
         style="fill:#d5ecbc;fill-opacity:1;fill-rule:nonzero;stroke:none"
         id="path38" />
      <path
         d="m 10.297,96.379 c 0,24.496 19.859,44.351 44.355,44.351 24.496,0 44.352,-19.855 44.352,-44.351 0,-24.496 -19.856,-44.356 -44.352,-44.356 -24.496,0 -44.355,19.86 -44.355,44.356"
         style="fill:#d0eab4;fill-opacity:1;fill-rule:nonzero;stroke:none"
         id="path40" />
      <path
         d="m 11.438,96.387 c 0,23.867 19.347,43.215 43.214,43.215 23.868,0 43.211,-19.348 43.211,-43.215 0,-23.867 -19.343,-43.215 -43.211,-43.215 -23.867,0 -43.214,19.348 -43.214,43.215"
         style="fill:#cbe7ac;fill-opacity:1;fill-rule:nonzero;stroke:none"
         id="path42" />
      <path
         d="m 12.578,96.398 c 0,23.235 18.836,42.075 42.074,42.075 23.235,0 42.075,-18.84 42.075,-42.075 0,-23.238 -18.84,-42.074 -42.075,-42.074 -23.238,0 -42.074,18.836 -42.074,42.074"
         style="fill:#c6e5a5;fill-opacity:1;fill-rule:nonzero;stroke:none"
         id="path44" />
      <path
         d="m 13.719,96.406 c 0,22.61 18.324,40.934 40.933,40.934 22.606,0 40.934,-18.324 40.934,-40.934 0,-22.609 -18.328,-40.933 -40.934,-40.933 -22.609,0 -40.933,18.324 -40.933,40.933"
         style="fill:#c0e39d;fill-opacity:1;fill-rule:nonzero;stroke:none"
         id="path46" />
      <path
         d="m 14.855,96.414 c 0,21.981 17.817,39.797 39.797,39.797 21.977,0 39.793,-17.816 39.793,-39.797 0,-21.976 -17.816,-39.793 -39.793,-39.793 -21.98,0 -39.797,17.817 -39.797,39.793"
         style="fill:#bbe096;fill-opacity:1;fill-rule:nonzero;stroke:none"
         id="path48" />
      <path
         d="m 15.996,96.426 c 0,21.347 17.305,38.652 38.656,38.652 21.348,0 38.653,-17.305 38.653,-38.652 C 93.305,75.078 76,57.77 54.652,57.77 33.301,57.77 15.996,75.078 15.996,96.426"
         style="fill:#b6de8f;fill-opacity:1;fill-rule:nonzero;stroke:none"
         id="path50" />
      <path
         d="m 17.137,96.434 c 0,20.718 16.797,37.515 37.515,37.515 20.719,0 37.512,-16.797 37.512,-37.515 0,-20.719 -16.793,-37.512 -37.512,-37.512 -20.718,0 -37.515,16.793 -37.515,37.512"
         style="fill:#b1dc88;fill-opacity:1;fill-rule:nonzero;stroke:none"
         id="path52" />
      <path
         d="m 18.277,96.445 c 0,20.086 16.285,36.371 36.375,36.371 20.09,0 36.375,-16.285 36.375,-36.371 0,-20.09 -16.285,-36.375 -36.375,-36.375 -20.09,0 -36.375,16.285 -36.375,36.375"
         style="fill:#acd981;fill-opacity:1;fill-rule:nonzero;stroke:none"
         id="path54" />
      <path
         d="m 19.418,96.453 c 0,19.457 15.773,35.235 35.234,35.235 19.457,0 35.235,-15.778 35.235,-35.235 0,-19.461 -15.778,-35.234 -35.235,-35.234 -19.461,0 -35.234,15.773 -35.234,35.234"
         style="fill:#a7d77b;fill-opacity:1;fill-rule:nonzero;stroke:none"
         id="path56" />
      <path
         d="m 20.555,96.461 c 0,18.832 15.265,34.098 34.097,34.098 18.828,0 34.094,-15.266 34.094,-34.098 0,-18.828 -15.266,-34.094 -34.094,-34.094 -18.832,0 -34.097,15.266 -34.097,34.094"
         style="fill:#a2d574;fill-opacity:1;fill-rule:nonzero;stroke:none"
         id="path58" />
      <path
         d="m 21.695,96.473 c 0,18.199 14.754,32.953 32.957,32.953 18.2,0 32.953,-14.754 32.953,-32.953 0,-18.2 -14.753,-32.953 -32.953,-32.953 -18.203,0 -32.957,14.753 -32.957,32.953"
         style="fill:#9dd36e;fill-opacity:1;fill-rule:nonzero;stroke:none"
         id="path60" />
      <path
         d="m 22.836,96.48 c 0,17.571 14.246,31.817 31.816,31.817 17.571,0 31.813,-14.246 31.813,-31.817 0,-17.57 -14.242,-31.812 -31.813,-31.812 -17.57,0 -31.816,14.242 -31.816,31.812"
         style="fill:#98d168;fill-opacity:1;fill-rule:nonzero;stroke:none"
         id="path62" />
      <path
         d="m 23.977,96.492 c 0,16.942 13.734,30.672 30.675,30.672 16.942,0 30.672,-13.73 30.672,-30.672 0,-16.941 -13.73,-30.676 -30.672,-30.676 -16.941,0 -30.675,13.735 -30.675,30.676"
         style="fill:#93ce61;fill-opacity:1;fill-rule:nonzero;stroke:none"
         id="path64" />
      <path
         d="m 25.117,96.5 c 0,16.312 13.223,29.535 29.535,29.535 16.313,0 29.536,-13.223 29.536,-29.535 0,-16.312 -13.223,-29.535 -29.536,-29.535 -16.312,0 -29.535,13.223 -29.535,29.535"
         style="fill:#8ecc5c;fill-opacity:1;fill-rule:nonzero;stroke:none"
         id="path66" />
      <path
         d="m 26.258,96.508 c 0,15.683 12.711,28.398 28.394,28.398 15.68,0 28.395,-12.715 28.395,-28.398 0,-15.68 -12.715,-28.395 -28.395,-28.395 -15.683,0 -28.394,12.715 -28.394,28.395"
         style="fill:#89ca56;fill-opacity:1;fill-rule:nonzero;stroke:none"
         id="path68" />
      <path
         d="m 27.395,96.52 c 0,15.05 12.203,27.253 27.257,27.253 15.051,0 27.254,-12.203 27.254,-27.253 0,-15.055 -12.203,-27.254 -27.254,-27.254 -15.054,0 -27.257,12.199 -27.257,27.254"
         style="fill:#84c850;fill-opacity:1;fill-rule:nonzero;stroke:none"
         id="path70" />
      <path
         d="m 28.535,96.527 c 0,14.426 11.692,26.118 26.117,26.118 14.422,0 26.114,-11.692 26.114,-26.118 0,-14.422 -11.692,-26.113 -26.114,-26.113 -14.425,0 -26.117,11.691 -26.117,26.113"
         style="fill:#7fc64a;fill-opacity:1;fill-rule:nonzero;stroke:none"
         id="path72" />
      <path
         d="m 29.676,96.539 c 0,13.793 11.179,24.973 24.976,24.973 13.793,0 24.973,-11.18 24.973,-24.973 0,-13.797 -11.18,-24.977 -24.973,-24.977 -13.797,0 -24.976,11.18 -24.976,24.977"
         style="fill:#7ac445;fill-opacity:1;fill-rule:nonzero;stroke:none"
         id="path74" />
      <path
         d="m 30.816,96.547 c 0,13.164 10.672,23.836 23.836,23.836 13.164,0 23.832,-10.672 23.832,-23.836 0,-13.164 -10.668,-23.836 -23.832,-23.836 -13.164,0 -23.836,10.672 -23.836,23.836"
         style="fill:#75c140;fill-opacity:1;fill-rule:nonzero;stroke:none"
         id="path76" />
      <path
         d="m 31.957,96.555 c 0,12.535 10.16,22.699 22.695,22.699 12.532,0 22.696,-10.164 22.696,-22.699 0,-12.532 -10.164,-22.696 -22.696,-22.696 -12.535,0 -22.695,10.164 -22.695,22.696"
         style="fill:#71bf3a;fill-opacity:1;fill-rule:nonzero;stroke:none"
         id="path78" />
      <path
         d="m 33.094,96.566 c 0,11.907 9.652,21.555 21.558,21.555 11.903,0 21.555,-9.648 21.555,-21.555 0,-11.906 -9.652,-21.554 -21.555,-21.554 -11.906,0 -21.558,9.648 -21.558,21.554"
         style="fill:#6cbd35;fill-opacity:1;fill-rule:nonzero;stroke:none"
         id="path80" />
      <path
         d="m 34.234,96.574 c 0,11.278 9.141,20.418 20.418,20.418 11.274,0 20.414,-9.14 20.414,-20.418 0,-11.273 -9.14,-20.414 -20.414,-20.414 -11.277,0 -20.418,9.141 -20.418,20.414"
         style="fill:#67bb31;fill-opacity:1;fill-rule:nonzero;stroke:none"
         id="path82" />
      <path
         d="m 35.375,96.586 c 0,10.644 8.629,19.273 19.277,19.273 10.645,0 19.274,-8.629 19.274,-19.273 0,-10.648 -8.629,-19.277 -19.274,-19.277 -10.648,0 -19.277,8.629 -19.277,19.277"
         style="fill:#62b92c;fill-opacity:1;fill-rule:nonzero;stroke:none"
         id="path84" />
      <path
         d="m 37.129,96.586 c 0,9.676 7.844,17.523 17.523,17.523 9.676,0 17.524,-7.847 17.524,-17.523 0,-9.68 -7.848,-17.524 -17.524,-17.524 -9.679,0 -17.523,7.844 -17.523,17.524"
         style="fill:#ffffff;fill-opacity:1;fill-rule:nonzero;stroke:none"
         id="path86" />
      <path
         d="m 90.867,96 c 0,9.68 7.844,17.523 17.524,17.523 9.675,0 17.519,-7.843 17.519,-17.523 0,-9.676 -7.844,-17.523 -17.519,-17.523 -9.68,0 -17.524,7.847 -17.524,17.523"
         style="fill:#7d61b7;fill-opacity:1;fill-rule:nonzero;stroke:none"
         id="path88" />
      <path
         d="M 28.359,1.523 H 23.598 L 9.875,27.414 V 1.523 H 6.281 v 28.942 h 5.965 L 24.766,6.832 v 23.633 h 3.593 V 1.523"
         style="fill:#62b92c;fill-opacity:1;fill-rule:nonzero;stroke:none"
         id="path90" />
      <g
         id="g92"
         transform="translate(0,151)">
        <path
           d="m 28.359,-149.477 h -4.761 l -13.723,25.891 v -25.891 H 6.281 v 28.942 h 5.965 l 12.52,-23.633 v 23.633 h 3.593 z"
           style="fill:none;stroke:#62b92c;stroke-width:0.6233;stroke-linecap:butt;stroke-linejoin:miter;stroke-miterlimit:3.86369;stroke-dasharray:none;stroke-opacity:1"
           id="path94" />
      </g>
      <path
         d="M 73.559,3.625 C 72.848,3.312 72.199,3.023 71.617,2.75 71.047,2.477 70.293,2.191 69.363,1.895 68.57,1.648 67.711,1.441 66.777,1.273 65.855,1.094 64.84,1 63.727,1 61.625,1 59.715,1.293 57.992,1.875 56.281,2.473 54.789,3.398 53.52,4.656 52.277,5.887 51.305,7.445 50.605,9.34 c -0.699,1.902 -1.05,4.113 -1.05,6.625 0,2.387 0.34,4.515 1.011,6.394 0.676,1.879 1.645,3.469 2.914,4.762 1.235,1.258 2.715,2.215 4.454,2.879 1.75,0.66 3.683,0.988 5.812,0.988 1.555,0 3.102,-0.187 4.645,-0.562 1.554,-0.375 3.277,-1.035 5.168,-1.981 v -4.57 H 73.27 c -1.594,1.336 -3.176,2.309 -4.743,2.918 -1.57,0.609 -3.246,0.914 -5.035,0.914 -1.465,0 -2.785,-0.242 -3.965,-0.723 -1.168,-0.464 -2.211,-1.195 -3.129,-2.195 -0.894,-0.969 -1.593,-2.203 -2.101,-3.691 -0.492,-1.477 -0.738,-3.188 -0.738,-5.133 0,-2.035 0.273,-3.781 0.816,-5.246 0.559,-1.465 1.27,-2.657 2.141,-3.578 0.906,-0.957 1.961,-1.668 3.168,-2.137 1.218,-0.453 2.5,-0.68 3.847,-0.68 1.852,0 3.59,0.317 5.207,0.953 1.621,0.633 3.137,1.586 4.551,2.856 h 0.27 V 3.625"
         style="fill:#62b92c;fill-opacity:1;fill-rule:nonzero;stroke:none"
         id="path96" />
      <g
         id="g98"
         transform="translate(0,151)">
        <path
           d="m 73.559,-147.375 c -0.711,-0.313 -1.36,-0.602 -1.942,-0.875 -0.57,-0.273 -1.324,-0.559 -2.254,-0.855 -0.793,-0.247 -1.652,-0.454 -2.586,-0.622 -0.922,-0.179 -1.937,-0.273 -3.05,-0.273 -2.102,0 -4.012,0.293 -5.735,0.875 -1.711,0.598 -3.203,1.523 -4.472,2.781 -1.243,1.231 -2.215,2.789 -2.915,4.684 -0.699,1.902 -1.05,4.113 -1.05,6.625 0,2.387 0.34,4.515 1.011,6.394 0.676,1.879 1.645,3.469 2.914,4.762 1.235,1.258 2.715,2.215 4.454,2.879 1.75,0.66 3.683,0.988 5.812,0.988 1.555,0 3.102,-0.187 4.645,-0.562 1.554,-0.375 3.277,-1.035 5.168,-1.981 v -4.57 H 73.27 c -1.594,1.336 -3.176,2.309 -4.743,2.918 -1.57,0.609 -3.246,0.914 -5.035,0.914 -1.465,0 -2.785,-0.242 -3.965,-0.723 -1.168,-0.464 -2.211,-1.195 -3.129,-2.195 -0.894,-0.969 -1.593,-2.203 -2.101,-3.691 -0.492,-1.477 -0.738,-3.188 -0.738,-5.133 0,-2.035 0.273,-3.781 0.816,-5.246 0.559,-1.465 1.27,-2.657 2.141,-3.578 0.906,-0.957 1.961,-1.668 3.168,-2.137 1.218,-0.453 2.5,-0.68 3.847,-0.68 1.852,0 3.59,0.317 5.207,0.953 1.621,0.633 3.137,1.586 4.551,2.856 h 0.27 z"
           style="fill:none;stroke:#62b92c;stroke-width:0.6233;stroke-linecap:butt;stroke-linejoin:miter;stroke-miterlimit:3.86369;stroke-dasharray:none;stroke-opacity:1"
           id="path100" />
      </g>
      <path
         d="M 101.242,27.043 H 90.902 V 1.523 h -3.847 v 25.52 h -10.34 v 3.422 h 24.527 v -3.422"
         style="fill:#62b92c;fill-opacity:1;fill-rule:nonzero;stroke:none"
         id="path102" />
      <g
         id="g104"
         transform="translate(0,151)">
        <path
           d="m 101.242,-123.957 h -10.34 v -25.52 h -3.847 v 25.52 h -10.34 v 3.422 h 24.527 z"
           style="fill:none;stroke:#62b92c;stroke-width:0.6233;stroke-linecap:butt;stroke-linejoin:miter;stroke-miterlimit:3.86369;stroke-dasharray:none;stroke-opacity:1"
           id="path106" />
      </g>
      <g
         id="g108"
         transform="translate(0,151)">
        <path
           d="m 38.418,-120.594 h 3.836 v -28.707 h -3.836 z"
           style="fill:#62b92c;fill-opacity:1;fill-rule:nonzero;stroke:#62b92c;stroke-width:0.6233;stroke-linecap:butt;stroke-linejoin:miter;stroke-miterlimit:3.86369;stroke-dasharray:none;stroke-opacity:1"
           id="path110" />
      </g>
    </g>
  </g>
</svg>
